<?xml version="1.0" standalone="no"?><!DOCTYPE svg PUBLIC "-//W3C//DTD SVG 1.1//EN" "http://www.w3.org/Graphics/SVG/1.1/DTD/svg11.dtd"><svg t="1492592269239" class="icon" style="" viewBox="0 0 1024 1024" version="1.1" xmlns="http://www.w3.org/2000/svg" p-id="1030" xmlns:xlink="http://www.w3.org/1999/xlink" width="32" height="32"><defs><style type="text/css"></style></defs><path d="M213.344 0l426.656 0 298.656 298.656 0 597.344q0 52.992-37.504 90.496t-90.496 37.504l-597.344 0q-52.992 0-90.496-37.504t-37.504-90.496l0-768q0-52.992 37.504-90.496t90.496-37.504zM554.656 384l0-298.656-341.344 0q-18.016 0-30.336 12.32t-12.32 30.336l0 768q0 18.016 12.32 30.336t30.336 12.32l597.344 0q18.016 0 30.336-12.32t12.32-30.336l0-512-298.656 0zM818.016 298.656l-178.016-178.016 0 178.016 178.016 0z" p-id="1031"></path></svg>